# xmcd
#
# Track frame offsets:
#	150
#	28229
#	53002
#	86323
#	111830
#	135824
#
# Disc length: 2530 seconds
#
# Revision: 1
# Processed by: cddbd v1.5.2PL0 Copyright (c) Steve Scherf et al.
# Submitted via: audiograbber 1.83.01
#
DISCID=3f09e006
DTITLE=Children Of Dom - Doom, Be Doomed, Ör Fuck Off
DYEAR=2011
DGENRE=Doom
TTITLE0=Mr Nasty
TTITLE1=Technophobia
TTITLE2=1916
TTITLE3=Bottle Ben In The Streets
TTITLE4=Doom, Be Doomed, Ör Fuck Off
TTITLE5=Mia's Desert...
EXTD=
EXTT0=
EXTT1=
EXTT2=
EXTT3=
EXTT4=
EXTT5=
PLAYORDER=
